# xmcd
#
# Track frame offsets:
#	150
#	14377
#	24892
#	35615
#	47682
#	61645
#	74990
#	88675
#	98915
#	112270
#	126222
#	138490
#	151992
#	162915
#	175195
#	188352
#	200010
#	211275
#	223307
#	233535
#	243900
#	256500
#
# Disc length: 3590
#
# Revision: 1
# Processed by: cddbd v1.5.1PL0 Copyright (c) Steve Scherf et al.
# Submitted via: dBpowerAMP V4.0
# Normalized: r0:TDELIM( - )
#
DISCID=310e0416
DTITLE=Various Artist - Chicago Blues - The Golden era disc 2
DYEAR=1900
DGENRE=Blues
TTITLE0=Otis Rush - I can't quit you baby
TTITLE1=Walter Horton - Have a good time
TTITLE2=Sunnyland Slim - It's your baby
TTITLE3=Lee Jackson - Fishing in my pond
TTITLE4=Elmore James - It hurts me too
TTITLE5=Magic Sam - All your love
TTITLE6=Charles Clark - Row your boat
TTITLE7=Magic Sam - All my whole life
TTITLE8=Otis Rush - Checkin' on my baby
TTITLE9=Shakey Jake - Call me (if you need me)
TTITLE10=Otis Rush - Double trouble
TTITLE11=Buddy Guy - This is the end
TTITLE12=Jimmy Reed - Baby, what you want me to do
TTITLE13=Memphis Slim - Wish me well
TTITLE14=Elmore James - Dust my broom
TTITLE15=Junior Wells - Little by little
TTITLE16=Junior Wells - Prison bars all around me
TTITLE17=Lillian Offitt - Will my man be home tonight
TTITLE18=Earl Hooker - Blues in D natural
TTITLE19=Junior Wells - Messin' with the kids
TTITLE20=Homesick James - Crossroads
TTITLE21=Big Mac featuring Hubert Sumlin - Rough dried woman
EXTD=
EXTT0=
EXTT1=
EXTT2=
EXTT3=
EXTT4=
EXTT5=
EXTT6=
EXTT7=
EXTT8=
EXTT9=
EXTT10=
EXTT11=
EXTT12=
EXTT13=
EXTT14=
EXTT15=
EXTT16=
EXTT17=
EXTT18=
EXTT19=
EXTT20=
EXTT21=
PLAYORDER=
